<?xml version="1.0" ?><!DOCTYPE svg  PUBLIC '-//W3C//DTD SVG 1.1//EN'  'http://www.w3.org/Graphics/SVG/1.1/DTD/svg11.dtd'><svg enable-background="new 0 0 100 100" height="100px" id="Layer_1" version="1.1" viewBox="0 0 100 100" width="100px" xml:space="preserve" xmlns="http://www.w3.org/2000/svg" xmlns:xlink="http://www.w3.org/1999/xlink"><g><g><g><g/></g><g/></g></g><g><path d="M32,19.333c-7.168,0-13,5.832-13,13v33.334c0,7.168,5.832,13,13,13s13-5.832,13-13V32.333   C45,25.165,39.168,19.333,32,19.333z M41,65.667c0,4.962-4.037,9-9,9s-9-4.038-9-9V50h18V65.667z" fill="#231F20"/><path d="M75,20H59c-3.309,0-6,2.691-6,6v16c0,3.309,2.691,6,6,6h16c3.309,0,6-2.691,6-6V26   C81,22.691,78.309,20,75,20z M77,42c0,1.103-0.896,2-2,2H59c-1.104,0-2-0.897-2-2V26c0-1.103,0.896-2,2-2h16c1.104,0,2,0.897,2,2   V42z" fill="#231F20"/><path d="M66.998,52c-7.72,0-14,6.28-14,14s6.28,14,14,14s14-6.28,14-14S74.718,52,66.998,52z M66.998,76   c-5.514,0-10-4.486-10-10s4.486-10,10-10s10,4.486,10,10S72.512,76,66.998,76z" fill="#231F20"/><rect fill="#231F20" height="2" transform="matrix(-0.7071 -0.7071 0.7071 -0.7071 67.7025 160.0452)" width="13.999" x="60" y="65"/><polygon fill="#231F20" points="68,27 66,27 66,33 60,33 60,35 66,35 66,41 68,41 68,35 74,35 74,33 68,33  "/></g></svg>